<svg width="17" height="18" viewBox="0 0 17 18" fill="none" xmlns="http://www.w3.org/2000/svg">
<path d="M16.6673 16.481L9.67906 0.452782C9.63218 0.333763 9.55114 0.231544 9.44635 0.159182C9.34151 0.0868195 9.21768 0.0476007 9.09064 0.0465444H7.97029C7.84498 0.0460382 7.7224 0.0830257 7.61804 0.152813C7.51363 0.222601 7.43216 0.322051 7.38386 0.438563L0.381501 16.4627C0.333386 16.5607 0.311746 16.6698 0.318814 16.7789C0.325883 16.8881 0.361411 16.9934 0.421803 17.0842C0.478908 17.1771 0.558769 17.2535 0.653759 17.3061C0.748687 17.3588 0.855458 17.3859 0.963841 17.3849H1.99757C2.12356 17.3874 2.24726 17.3513 2.35236 17.2813C2.45752 17.2112 2.53899 17.1106 2.58599 16.9928L4.26654 13.0381H12.7601L14.4306 16.9928C14.4776 17.1122 14.559 17.2146 14.6642 17.287C14.7694 17.3594 14.8937 17.3984 15.021 17.3991H16.0286C16.133 17.4057 16.2375 17.3861 16.3326 17.3417C16.4276 17.2974 16.5101 17.2298 16.5727 17.1452C16.6463 17.0533 16.6939 16.9431 16.7106 16.8262C16.7273 16.7093 16.7124 16.59 16.6673 16.481ZM5.16126 10.9967L5.18947 10.9337L8.55666 3.03444L11.934 10.9967H5.16126Z" fill="#F2994A"/>
</svg>
