<svg width="116" height="110" viewBox="0 0 116 110" fill="none" xmlns="http://www.w3.org/2000/svg">
<path fill-rule="evenodd" clip-rule="evenodd" d="M26.2779 2.18792C5.16622 8.98491 -4.25028 32.0327 2.82771 54.0197C6.41945 64.3731 12.2607 73.6786 19.9352 81.3133C30.4633 91.5383 42.0296 100.537 54.463 108.182L55.875 109.028C57.2272 109.837 58.9189 109.823 60.2573 108.991L61.5755 108.172C73.9918 100.537 85.5581 91.5383 96.0502 81.3487C103.761 73.6786 109.602 64.3731 113.164 54.1096C120.267 32.0461 110.812 8.98733 89.6939 2.18826L88.1662 1.73333C78.4837 -0.929748 68.1947 0.382482 59.521 5.29325L57.9792 6.20719L56.4647 5.29835C47.3161 0.10728 36.3823 -1.06232 26.2779 2.18792ZM54.4035 13.9121L55.5347 14.7235C57.0259 15.7915 59.0379 15.7702 60.5062 14.671C68.1538 8.94582 78.051 7.27979 87.1178 10.1885C103.48 15.4564 110.926 33.6156 105.186 51.4465C102.073 60.4151 96.9191 68.6251 90.1512 75.3579L87.1151 78.2422C78.9351 85.844 70.089 92.7255 60.6968 98.7897L58.0065 100.482L58.8275 100.999C46.9621 93.7024 35.8833 85.0834 25.8327 75.3225C19.1008 68.6251 13.9472 60.4151 10.8037 51.3566C5.08823 33.5986 12.5022 15.4522 28.8556 10.1872C37.4908 7.40955 46.905 8.7867 54.4035 13.9121ZM80.2533 23.2816C78.0409 22.5755 75.6744 23.7951 74.9677 26.0057C74.2609 28.2163 75.4815 30.5808 77.694 31.287C82.0424 32.6749 85.1426 36.5888 85.531 41.2056C85.7255 43.5181 87.7595 45.2352 90.0739 45.0408C92.3883 44.8464 94.1068 42.8141 93.9122 40.5016C93.2398 32.5095 87.8515 25.7068 80.2533 23.2816Z" fill="#F2994A"/>
</svg>
