<svg width="118" height="26" fill="none" xmlns="http://www.w3.org/2000/svg"><g clip-path="url(#a)" fill="#5d5980"><path d="m8.925 14.162 6.946 10.969a.866.866 0 0 0 .758.39h2.573a.866.866 0 0 0 .818-.546.884.884 0 0 0 .065-.342V1.404a.903.903 0 0 0-.6-.84.884.884 0 0 0-.986.288L8.925 13.096a.973.973 0 0 0 0 1.066ZM1.117 25.517h4.582a.867.867 0 0 0 .818-.546.884.884 0 0 0 .065-.342v-5.89a.905.905 0 0 0-.602-.837.886.886 0 0 0-.986.287l-4.582 5.89a.906.906 0 0 0 .24 1.299.89.89 0 0 0 .465.14Zm81.844-13.244a1.607 1.607 0 0 0-.17-.18l-.096-.082-.048-.042a4.134 4.134 0 0 0-.708-.484 4.632 4.632 0 0 0-.861-.406 5.754 5.754 0 0 0-.946-.252 5.51 5.51 0 0 0-2.494.128 6.06 6.06 0 0 0-1.387.591 5.85 5.85 0 0 0-1.175.914c-.35.357-.659.753-.92 1.18-.267.43-.47.897-.605 1.385a5.68 5.68 0 0 0 0 3.092c.138.487.342.952.605 1.383.261.427.57.823.92 1.18.354.355.75.663 1.179.916.437.247.9.445 1.38.59a5.34 5.34 0 0 0 2.564.127c.327-.054.648-.146.955-.274.294-.12.579-.264.852-.428a7.59 7.59 0 0 0 .782-.539c.072-.063.14-.13.202-.203l.032-.036a.717.717 0 0 0 .133-.244l.012-.073a.615.615 0 0 0-.079-.335l-.028-.045a.697.697 0 0 0-.075-.102l-.074-.101c-.15-.203-.29-.406-.441-.593a.635.635 0 0 0-.234-.17.427.427 0 0 0-.276 0 1.162 1.162 0 0 0-.345.237l-.132.113c-.132.11-.202.181-.386.311a2.846 2.846 0 0 1-.532.323 2.54 2.54 0 0 1-.642.228c-.736.16-1.502.08-2.189-.232a3.954 3.954 0 0 1-2.007-2.057 3.65 3.65 0 0 1 0-2.964 4.11 4.11 0 0 1 .822-1.243 4.336 4.336 0 0 1 1.187-.849 3.2 3.2 0 0 1 2.048-.244c.23.054.457.126.677.216.21.09.411.195.604.316.403.24.858.927 1.3.382l.638-.865a.381.381 0 0 0 .067-.29.576.576 0 0 0-.109-.279Zm-39.294 9.208L36.68 5.453a.644.644 0 0 0-.588-.406h-1.12a.63.63 0 0 0-.587.392L27.38 21.463a.626.626 0 0 0 .04.621.631.631 0 0 0 .543.3h1.034a.618.618 0 0 0 .588-.391l1.68-3.955h8.494l1.67 3.955a.643.643 0 0 0 .591.406h1.008a.625.625 0 0 0 .544-.254.66.66 0 0 0 .094-.664Zm-11.506-5.484.029-.063 3.367-7.9 3.377 7.963h-6.773Zm75.491-1.215a6.005 6.005 0 0 0-.806-1.74 5.776 5.776 0 0 0-.911-.974 4.09 4.09 0 0 0-1.082-.698 5.905 5.905 0 0 0-1.209-.451 5.464 5.464 0 0 0-2.837.054c-.475.133-.93.332-1.35.59-.417.261-.801.57-1.147.922-.339.35-.627.749-.854 1.182a5.934 5.934 0 0 0-.55 1.4 5.521 5.521 0 0 0-.125 2.388c.034.311.094.619.177.92.174.622.446 1.211.806 1.745.266.358.571.683.911.97.323.29.689.526 1.084.702.386.194.791.345 1.209.448a5.51 5.51 0 0 0 4.185-.643 6.33 6.33 0 0 0 1.147-.92c.329-.337.607-.722.824-1.142l.018-.04a.372.372 0 0 0 .033-.389.303.303 0 0 0-.257-.158h-1.67a.458.458 0 0 0-.369.173c-.21.257-.456.483-.729.67a3.67 3.67 0 0 1-3.204.364 4.09 4.09 0 0 1-1.08-.594 3.074 3.074 0 0 1-.78-.932 5.064 5.064 0 0 1-.36-1.219l-.01-.052h.056l8.584-.019c.352 0 .552-.22.552-.61a5.918 5.918 0 0 0-.256-1.947Zm-1.827.766-6.947.032.018-.059c.116-.395.29-.77.514-1.115a3.9 3.9 0 0 1 1.028-1.038A3.67 3.67 0 0 1 103.65 13c.388.142.752.342 1.08.594.321.256.587.575.782.938.17.299.292.623.361.96l.012.056h-.06ZM56 20.666c.345-.357.649-.753.904-1.18.253-.439.45-.909.587-1.397a5.704 5.704 0 0 0 0-3.09 6.096 6.096 0 0 0-.587-1.397 5.887 5.887 0 0 0-2.083-2.1 6.187 6.187 0 0 0-1.368-.591 5.495 5.495 0 0 0-3.73.235c-.496.228-.96.522-1.377.876l-.074.063v-.626a.522.522 0 0 0-.343-.548.51.51 0 0 0-.227-.025h-.88a.525.525 0 0 0-.586.573v13.483a.562.562 0 0 0 .337.53c.068.03.142.045.216.045h.896a.602.602 0 0 0 .428-.16.556.556 0 0 0 .159-.407v-3.94l.074.063c.412.349.87.638 1.36.859a5.49 5.49 0 0 0 3.728.235 5.994 5.994 0 0 0 1.387-.59 5.75 5.75 0 0 0 1.179-.91Zm-2.666-.564a3.353 3.353 0 0 1-2.85 0 3.628 3.628 0 0 1-1.183-.861 4.105 4.105 0 0 1-.806-1.242 3.83 3.83 0 0 1 0-2.939c.195-.451.468-.864.806-1.219.34-.353.74-.64 1.183-.845a3.359 3.359 0 0 1 2.848 0c.436.208.831.493 1.166.843.333.356.6.769.79 1.22a3.805 3.805 0 0 1 0 2.936 4.477 4.477 0 0 1-.792 1.247c-.328.36-.723.652-1.162.86Zm8.201-9.2h-.878a.523.523 0 0 0-.56.349.534.534 0 0 0-.027.234V24.95a.563.563 0 0 0 .16.406.545.545 0 0 0 .392.16h.895a.602.602 0 0 0 .427-.16.546.546 0 0 0 .16-.406v-3.94l.074.063c.412.349.87.638 1.362.859a5.488 5.488 0 0 0 3.728.235 6.03 6.03 0 0 0 1.386-.59c.43-.256.826-.565 1.18-.92a6.44 6.44 0 0 0 .902-1.181c.252-.44.45-.909.587-1.397a5.672 5.672 0 0 0 0-3.09 5.87 5.87 0 0 0-2.668-3.498 6.26 6.26 0 0 0-1.37-.59 5.498 5.498 0 0 0-3.73.235c-.497.227-.96.522-1.377.875l-.08.084v-.61a.521.521 0 0 0-.335-.554.51.51 0 0 0-.228-.029Zm.794 4.172c.195-.45.468-.863.806-1.218a3.944 3.944 0 0 1 1.179-.853 3.36 3.36 0 0 1 2.847 0 3.99 3.99 0 0 1 1.183.845c.333.355.6.768.79 1.218a3.79 3.79 0 0 1 0 2.937 4.354 4.354 0 0 1-.792 1.25c-.329.359-.724.65-1.163.859a3.367 3.367 0 0 1-2.851 0 3.644 3.644 0 0 1-1.18-.861 4.079 4.079 0 0 1-.807-1.242 3.83 3.83 0 0 1-.012-2.935Zm32.211-3.755a.533.533 0 0 0-.155-.43.517.517 0 0 0-.432-.143h-.884a.51.51 0 0 0-.545.343c-.025.074-.034.152-.025.23v6.463c.007.379-.075.754-.238 1.095a2.35 2.35 0 0 1-.604.812c-.252.21-.536.375-.841.49a2.665 2.665 0 0 1-2.12-.11 2.27 2.27 0 0 1-.785-.678 2.407 2.407 0 0 1-.43-.914 4.494 4.494 0 0 1-.133-1.032v-5.96a1.039 1.039 0 0 0-.13-.558.679.679 0 0 0-.559-.203h-.637a.692.692 0 0 0-.514.203.794.794 0 0 0-.201.587v5.95a6.1 6.1 0 0 0 .286 1.915c.186.576.48 1.11.865 1.576.385.455.867.816 1.41 1.056a5.164 5.164 0 0 0 2.983.286c.27-.065.534-.156.787-.27.237-.11.456-.256.651-.43l.14-.13.076-.076v.453a.499.499 0 0 0 .14.362.543.543 0 0 0 .446.203h.895a.538.538 0 0 0 .393-.158.486.486 0 0 0 .161-.407V11.32Zm22.494 6.325a2.953 2.953 0 0 0-.79-1.016 4.772 4.772 0 0 0-1.209-.725 8.432 8.432 0 0 0-1.527-.475 5.36 5.36 0 0 1-.749-.23 2.862 2.862 0 0 1-.625-.32 1.417 1.417 0 0 1-.581-.69 1.085 1.085 0 0 1 0-.647c.071-.238.369-.892 1.522-.965 1.102-.069 1.656.514 1.847.774.029.037.299.388.492.61a.607.607 0 0 0 .115.08.506.506 0 0 0 .482-.062l.673-.504a.494.494 0 0 0 .239-.427v-.02a1.145 1.145 0 0 0-.153-.368 8.807 8.807 0 0 0-.645-.824 3.166 3.166 0 0 0-.713-.628 3.271 3.271 0 0 0-.894-.388 4.79 4.79 0 0 0-2.725.106 3.356 3.356 0 0 0-1.209.66 2.96 2.96 0 0 0-.792 1.04 3.216 3.216 0 0 0-.036 2.57c.165.37.41.698.715.962a5.43 5.43 0 0 0 1.078.725 8.23 8.23 0 0 0 1.411.516c.143.033.286.071.435.112.149.04.294.08.441.114.261.063.514.157.752.28.201.097.379.235.522.406a1.093 1.093 0 0 1-.022 1.258 1.896 1.896 0 0 1-.532.47 2.57 2.57 0 0 1-.671.277 2.74 2.74 0 0 1-1.209 0 3.049 3.049 0 0 1-.604-.228 2.585 2.585 0 0 1-.543-.365 3.006 3.006 0 0 1-.389-.553.865.865 0 0 0-.224-.308.504.504 0 0 0-.558-.063l-.806.384a.522.522 0 0 0-.288.274.45.45 0 0 0-.02.254.818.818 0 0 0 .063.247c.139.369.337.712.586 1.016.276.332.613.608.991.813a3.84 3.84 0 0 0 1.141.457c.924.22 1.889.19 2.797-.09a3.766 3.766 0 0 0 1.319-.674c.378-.287.682-.662.885-1.093.2-.429.304-.896.305-1.37a3.247 3.247 0 0 0-.297-1.372Z"/></g><defs><clipPath id="a"><path fill="#5d5980" transform="translate(.234 .517)" d="M0 0h117.188v25H0z"/></clipPath></defs></svg>