<svg width="116" height="110" fill="none" xmlns="http://www.w3.org/2000/svg"><path fill-rule="evenodd" clip-rule="evenodd" d="M26.278 2.188C5.166 8.985-4.25 32.033 2.828 54.02c3.591 10.353 9.433 19.659 17.107 27.293a199.597 199.597 0 0 0 34.528 26.869l1.412.846a4.209 4.209 0 0 0 4.382-.037l1.319-.819A199.485 199.485 0 0 0 96.05 81.349a71.421 71.421 0 0 0 17.114-27.24c7.103-22.063-2.352-45.122-23.47-51.92l-1.528-.456a37.784 37.784 0 0 0-28.645 3.56l-1.542.914-1.514-.909a37.73 37.73 0 0 0-30.187-3.11Zm28.126 11.724 1.13.811a4.208 4.208 0 0 0 4.972-.052c7.648-5.725 17.545-7.391 26.612-4.482 16.362 5.267 23.808 23.427 18.068 41.258a62.876 62.876 0 0 1-15.035 23.91l-3.036 2.885A191.066 191.066 0 0 1 60.697 98.79l-2.69 1.692.82.517a191.02 191.02 0 0 1-32.994-25.676c-6.732-6.698-11.886-14.908-15.03-23.966-5.715-17.758 1.7-35.905 18.053-41.17a29.325 29.325 0 0 1 25.547 3.725Zm25.85 9.37a4.201 4.201 0 1 0-2.56 8.005c4.348 1.388 7.449 5.302 7.837 9.919a4.204 4.204 0 0 0 4.543 3.835 4.203 4.203 0 0 0 3.838-4.54c-.672-7.991-6.06-14.794-13.659-17.22Z" fill="#F2994A"/></svg>